<?xml version="1.0" standalone="no"?>
<!DOCTYPE svg PUBLIC "-//W3C//DTD SVG 20010904//EN"
 "http://www.w3.org/TR/2001/REC-SVG-20010904/DTD/svg10.dtd">
<svg version="1.0" xmlns="http://www.w3.org/2000/svg"
 width="762.000000pt" height="762.000000pt" viewBox="0 0 762.000000 762.000000"
 preserveAspectRatio="xMidYMid meet">
<metadata>
Created by potrace 1.11, written by Peter Selinger 2001-2013
</metadata>
<g transform="translate(0.000000,762.000000) scale(0.100000,-0.100000)"
fill="#000000" stroke="none">
<path d="M2338 7245 c-2 -1 -27 -6 -56 -9 -68 -8 -192 -41 -257 -69 -132 -56
-316 -182 -300 -206 3 -6 0 -9 -8 -6 -8 4 -33 -17 -63 -51 -43 -51 -66 -82
-134 -184 -14 -21 -56 -107 -91 -185 -22 -50 -39 -116 -33 -127 4 -6 3 -8 -4
-4 -9 5 -36 -89 -57 -194 -23 -118 -43 -320 -32 -320 6 0 5 -5 -1 -12 -9 -12
-14 -314 -5 -330 2 -4 6 -53 9 -110 3 -56 9 -119 13 -140 11 -46 1 -59 -64
-83 -25 -10 -45 -22 -45 -27 0 -5 -4 -7 -8 -4 -13 8 -291 -136 -380 -195 -24
-16 -45 -29 -48 -29 -8 0 -139 -94 -142 -102 -2 -4 -8 -8 -13 -8 -16 0 -48
-33 -42 -43 3 -6 1 -7 -6 -3 -6 4 -24 -6 -42 -23 -17 -17 -34 -31 -38 -31 -25
0 -254 -262 -318 -365 -17 -26 -93 -173 -94 -180 0 -2 -6 -20 -14 -40 -8 -19
-17 -45 -19 -57 -3 -13 -5 -23 -6 -23 -2 0 -8 -26 -24 -110 -14 -78 -15 -271
-1 -340 7 -36 34 -134 42 -155 3 -8 7 -21 9 -28 1 -7 12 -33 23 -58 12 -24 21
-48 21 -54 0 -5 4 -10 9 -10 5 0 14 -13 19 -30 11 -29 84 -143 109 -168 7 -7
13 -17 13 -22 0 -14 231 -243 295 -293 33 -26 65 -50 70 -55 64 -50 136 -93
146 -86 7 4 10 3 6 -4 -11 -17 266 -177 287 -165 6 3 8 3 4 -2 -7 -8 34 -29
191 -101 l63 -28 -7 -81 c-4 -44 -9 -96 -11 -115 -2 -19 -6 -111 -9 -204 -4
-132 -3 -171 7 -178 8 -4 8 -8 2 -8 -11 0 -11 -44 1 -165 12 -128 64 -385 77
-385 5 0 7 -4 4 -9 -6 -8 39 -146 54 -166 4 -5 13 -27 20 -48 6 -20 15 -35 19
-33 4 3 8 -1 8 -9 0 -18 46 -105 55 -105 5 0 8 -5 8 -11 0 -6 15 -30 32 -53
18 -22 37 -47 43 -54 44 -57 167 -169 214 -196 9 -5 18 -12 21 -16 13 -17 149
-82 228 -109 91 -31 151 -44 214 -45 21 -1 38 -4 38 -8 0 -7 234 -2 285 6 17
3 46 7 65 10 58 10 99 20 248 62 12 3 22 10 22 14 0 5 8 6 19 3 10 -3 22 0 25
6 4 6 14 11 22 11 24 0 254 108 369 173 73 42 266 165 275 176 3 3 12 11 21
16 9 6 40 27 70 47 40 28 56 35 66 26 7 -6 13 -7 13 -3 0 4 9 -4 21 -19 11
-14 24 -26 29 -26 5 0 21 -11 36 -25 15 -14 33 -25 40 -25 8 0 14 -4 14 -10 0
-5 5 -10 10 -10 6 0 21 -9 33 -21 12 -11 31 -25 42 -30 11 -6 29 -15 40 -22
11 -7 54 -32 95 -57 116 -71 312 -164 427 -204 137 -47 245 -75 368 -92 81
-11 315 -8 380 5 130 27 300 88 317 115 4 6 8 8 8 3 0 -4 11 0 25 9 14 9 22
21 18 27 -3 6 -1 7 6 3 34 -21 250 188 326 315 47 80 95 168 95 176 0 6 7 24
16 42 9 17 17 37 18 44 2 7 8 26 15 42 20 47 59 209 75 309 31 186 44 466 23
466 -7 0 -6 4 3 10 13 8 13 13 2 31 -8 11 -9 19 -4 15 5 -3 8 17 6 47 -7 129
-16 234 -23 273 -5 23 -5 47 -2 53 4 5 36 23 71 39 125 57 239 113 302 148 35
20 78 45 96 55 51 30 226 147 247 166 11 10 36 30 55 45 61 46 95 80 92 90 -1
5 2 7 7 4 14 -9 173 165 238 262 76 112 116 189 107 204 -4 6 -3 8 3 5 10 -6
46 75 58 128 2 11 11 45 19 75 11 38 12 56 5 61 -8 4 -7 8 2 11 11 4 14 35 13
139 0 131 -3 162 -24 244 -6 22 -13 48 -15 58 -7 29 -44 126 -60 158 -9 16
-16 32 -16 36 0 5 -6 15 -13 23 -7 8 -25 38 -41 65 -49 87 -124 176 -253 303
-69 67 -129 122 -134 122 -4 0 -17 8 -27 17 -11 10 -27 24 -35 31 -26 21 -188
128 -231 152 -22 13 -62 36 -90 52 -52 30 -152 79 -293 144 l-83 39 5 70 c4
38 8 99 11 135 3 36 7 86 10 113 3 32 0 47 -8 47 -8 0 -9 3 -1 8 13 8 15 210
2 218 -4 3 -6 10 -3 15 10 15 14 49 7 49 -4 0 -7 24 -7 53 0 28 -3 72 -6 97
-4 25 -10 68 -13 95 -19 143 -84 353 -152 488 -52 105 -68 129 -79 119 -5 -4
-5 -1 -1 6 9 14 -28 65 -39 54 -5 -4 -5 -2 -1 5 4 7 -5 26 -21 45 -187 215
-395 333 -658 373 -68 10 -93 10 -104 2 -11 -9 -13 -9 -8 0 9 14 -122 16 -140
1 -6 -5 -14 -5 -17 0 -5 8 -40 5 -151 -12 -22 -4 -74 -15 -115 -26 -41 -11
-83 -22 -92 -24 -9 -3 -26 -10 -37 -16 -12 -6 -21 -9 -21 -6 0 6 -43 -11 -150
-57 -19 -9 -54 -23 -77 -32 -24 -10 -43 -21 -43 -27 0 -5 -4 -7 -9 -3 -5 3
-17 -3 -27 -12 -10 -10 -20 -17 -23 -17 -19 4 -241 -124 -241 -139 0 -6 -3 -7
-6 -4 -6 6 -95 -53 -225 -148 l-47 -33 -48 34 c-143 100 -194 134 -203 134 -5
0 -11 4 -13 8 -10 28 -445 257 -502 266 -6 1 -16 5 -22 8 -38 24 -301 93 -396
104 -56 6 -285 14 -290 9z m207 -479 c84 -10 116 -17 200 -42 44 -13 87 -26
96 -28 10 -3 51 -20 93 -40 42 -19 76 -32 76 -28 0 4 4 2 8 -4 4 -6 30 -21 57
-35 28 -13 66 -33 85 -45 87 -53 208 -130 242 -155 l37 -26 -99 -98 c-54 -54
-96 -103 -93 -109 3 -6 2 -8 -2 -3 -12 10 -66 -43 -58 -57 3 -6 3 -8 -1 -4 -5
4 -20 -6 -34 -21 -43 -45 -152 -169 -175 -199 -12 -15 -27 -31 -33 -37 -6 -5
-37 -44 -70 -85 -101 -130 -107 -134 -204 -149 -74 -11 -308 -52 -380 -68 -14
-2 -34 -6 -45 -8 -11 -2 -49 -11 -85 -20 -35 -9 -74 -18 -85 -20 -11 -2 -20
-4 -20 -5 0 -1 -10 -3 -23 -6 -13 -2 -65 -16 -115 -30 -143 -40 -137 -41 -138
3 -1 21 -3 56 -5 78 -9 116 -3 404 10 484 3 14 8 46 11 71 17 122 64 269 114
360 16 30 27 59 24 65 -4 5 -3 7 2 3 7 -7 45 32 45 47 0 11 91 94 138 126 41
28 98 56 132 65 66 17 94 21 155 23 38 1 72 4 74 7 2 2 7 2 10 0 3 -2 29 -7
56 -10z m2720 0 c117 -11 242 -71 325 -156 16 -16 31 -27 34 -24 3 2 4 1 1 -2
-2 -4 9 -23 24 -43 16 -20 37 -53 47 -74 10 -20 21 -37 26 -37 4 0 8 -5 8 -12
0 -6 12 -40 26 -76 14 -35 27 -72 29 -81 2 -9 10 -45 19 -81 8 -36 17 -78 20
-95 6 -43 19 -136 22 -165 5 -41 4 -372 -1 -410 -2 -19 -5 -50 -6 -68 -2 -25
-6 -32 -18 -29 -38 11 -297 79 -311 82 -8 2 -44 10 -80 18 -36 8 -83 18 -105
21 -22 4 -56 11 -75 16 -19 5 -64 14 -100 19 -36 6 -74 13 -85 15 -89 16 -152
26 -193 28 -7 1 -26 16 -42 35 -17 19 -30 30 -30 26 -1 -4 -6 4 -13 19 -11 25
-120 159 -179 221 -16 16 -28 31 -28 34 0 7 -36 45 -233 247 -138 141 -163
171 -152 183 8 7 17 13 22 13 4 0 19 9 33 20 14 12 61 43 105 71 44 27 79 55
77 60 -1 6 1 8 6 5 5 -3 72 26 150 64 77 39 147 70 154 70 8 0 18 4 24 9 20
20 242 72 334 78 52 3 97 7 98 9 2 1 9 1 15 -2 7 -2 30 -6 52 -8z m-1261 -898
c194 -197 193 -196 88 -191 -160 8 -260 8 -255 0 3 -5 -2 -5 -13 0 -17 9 -256
8 -346 0 -21 -2 -38 -1 -38 2 0 6 95 110 151 166 16 17 26 35 22 39 -4 5 -3 6
3 3 5 -3 48 32 95 78 46 46 91 84 99 85 9 0 96 -82 194 -182z m224 -672 c7 -4
19 -3 27 4 7 6 16 7 19 2 3 -5 29 -10 58 -11 195 -9 250 -19 277 -49 45 -52
61 -72 61 -78 0 -2 17 -28 38 -57 22 -29 41 -56 43 -62 3 -9 111 -175 158
-245 16 -23 58 -95 103 -175 9 -16 21 -29 28 -27 6 1 9 -2 5 -8 -4 -6 20 -59
53 -118 33 -59 73 -132 88 -162 16 -30 34 -58 39 -62 6 -4 7 -8 3 -8 -4 0 12
-39 36 -87 24 -49 58 -119 76 -158 18 -38 34 -73 36 -76 1 -3 -8 -29 -21 -57
-13 -29 -25 -56 -26 -60 -1 -4 -29 -63 -63 -132 -33 -69 -60 -128 -58 -132 1
-5 -2 -8 -6 -8 -8 0 -62 -101 -63 -117 0 -5 -6 -15 -14 -23 -15 -18 -59 -103
-56 -109 2 -2 -1 -7 -6 -10 -20 -14 -84 -132 -77 -143 4 -6 3 -8 -3 -5 -6 4
-38 -40 -72 -96 -74 -122 -137 -220 -208 -321 -29 -42 -53 -78 -53 -81 0 -4
-15 -22 -33 -41 -27 -29 -41 -36 -82 -39 -28 -2 -88 -7 -135 -11 -47 -4 -109
-8 -137 -8 -29 -1 -53 -3 -53 -6 0 -9 -480 -12 -665 -5 -317 13 -510 32 -526
51 -6 8 -15 11 -20 8 -5 -3 -8 -1 -7 4 4 13 -44 92 -54 92 -5 0 -8 6 -8 13 0
8 -9 22 -20 32 -11 10 -20 24 -20 32 0 7 -4 13 -8 13 -5 0 -14 10 -21 23 -22
42 -91 148 -102 157 -3 3 -8 12 -12 20 -4 8 -18 33 -32 55 -13 22 -34 56 -45
75 -11 19 -43 73 -71 120 -28 47 -57 100 -66 117 -8 18 -20 30 -26 26 -5 -3
-7 -1 -4 5 10 15 -3 43 -16 35 -6 -4 -7 -1 -2 7 4 7 4 15 -1 19 -5 3 -27 42
-48 86 -22 44 -45 83 -50 87 -6 4 -8 8 -3 8 4 0 -10 35 -32 78 -67 133 -102
212 -103 230 -1 18 30 87 112 254 35 71 44 100 36 108 -8 8 -7 10 4 6 11 -5
27 18 60 81 45 88 136 252 171 308 11 17 25 41 32 55 6 14 25 45 41 70 74 113
85 133 79 144 -3 6 -3 8 2 4 5 -5 15 2 24 15 9 12 13 22 11 22 -3 0 5 11 18
25 12 13 20 30 17 38 -2 7 -1 11 4 8 5 -3 27 22 50 57 105 159 113 166 186
172 33 3 80 8 105 10 25 2 101 7 170 11 69 3 127 7 128 9 8 7 718 -1 730 -9z
m-1860 -153 c-22 -26 -143 -227 -233 -388 -99 -176 -115 -208 -108 -219 4 -5
1 -6 -5 -2 -5 3 -12 1 -14 -5 -2 -7 -12 17 -22 52 -10 35 -21 71 -26 79 -4 9
-13 41 -20 73 -7 31 -16 55 -19 53 -3 -2 -7 15 -8 37 -1 23 -7 43 -12 45 -6 2
-9 7 -7 11 3 4 -3 40 -14 80 l-18 72 26 11 c36 14 101 31 267 72 244 60 240
60 213 29z m2922 15 c0 -5 10 -8 23 -8 20 0 260 -60 384 -96 60 -18 62 -23 39
-111 -8 -29 -12 -53 -10 -53 3 0 0 -8 -5 -18 -6 -11 -12 -30 -15 -43 -3 -13
-9 -39 -15 -57 -5 -18 -11 -36 -12 -40 -1 -4 -3 -11 -5 -17 -1 -5 -16 -52 -31
-104 l-28 -94 -15 29 c-8 16 -17 31 -20 34 -3 3 -16 28 -30 55 -41 82 -143
260 -152 263 -4 2 -8 8 -8 14 0 13 -129 226 -141 234 -18 10 -8 22 16 20 14 0
25 -4 25 -8z m-3856 -370 c30 -121 80 -293 85 -298 3 -3 6 -9 7 -15 2 -41 136
-422 174 -495 22 -44 20 -78 -10 -156 -16 -43 -29 -83 -29 -88 0 -5 -3 -12 -8
-15 -7 -5 -34 -76 -38 -101 0 -3 -3 -9 -6 -15 -4 -5 -21 -55 -38 -110 -39
-118 -40 -123 -42 -133 -1 -4 -12 -37 -25 -74 -12 -38 -21 -68 -18 -68 3 0 2
-6 -3 -12 -4 -7 -8 -17 -9 -23 -1 -5 -14 -51 -28 -102 -14 -51 -26 -99 -26
-108 0 -12 -6 -15 -22 -10 -29 9 -284 137 -312 158 -70 50 -175 115 -180 112
-3 -3 -4 -2 -1 1 7 10 -66 65 -76 58 -5 -3 -8 -2 -7 3 2 5 -31 42 -73 83 -83
82 -159 172 -159 188 0 6 -4 12 -8 14 -4 2 -23 32 -41 68 -59 117 -80 272 -50
383 5 20 7 43 3 49 -4 7 -3 8 4 4 10 -6 18 18 10 27 -2 1 7 17 20 35 13 17 21
32 17 32 -3 0 12 26 34 59 22 32 37 62 33 66 -4 5 -1 5 6 1 6 -4 12 -2 12 4 0
12 179 192 230 232 103 78 288 195 372 234 20 9 34 22 31 27 -3 6 -2 7 4 4 5
-3 36 7 69 23 32 16 64 29 69 29 6 1 19 -32 29 -71z m4837 46 c28 -14 58 -23
66 -20 8 3 11 1 8 -4 -3 -5 12 -18 35 -30 22 -11 40 -17 40 -13 0 5 4 3 8 -3
4 -5 25 -21 47 -33 22 -13 57 -35 77 -48 21 -14 42 -22 49 -17 7 4 10 3 5 -4
-4 -6 4 -16 16 -23 13 -7 49 -32 81 -56 31 -24 62 -41 67 -38 6 4 9 2 8 -2 -4
-12 184 -197 197 -194 6 1 7 -1 3 -5 -4 -4 3 -20 15 -36 12 -17 29 -42 38 -57
9 -14 21 -25 27 -24 5 1 8 -6 5 -16 -2 -9 3 -23 11 -30 9 -8 16 -20 16 -27 0
-8 4 -22 9 -32 8 -14 17 -38 24 -62 13 -47 22 -138 19 -185 -2 -33 -5 -72 -6
-87 0 -14 -3 -25 -6 -23 -3 2 -16 -25 -28 -61 -12 -35 -34 -80 -47 -101 -14
-21 -31 -46 -38 -57 -6 -10 -18 -24 -24 -32 -7 -7 -13 -15 -13 -18 0 -3 -39
-46 -87 -94 -122 -122 -251 -217 -421 -313 -46 -26 -80 -49 -75 -51 4 -3 3 -3
-4 -2 -16 4 -89 -32 -77 -38 5 -3 3 -3 -4 -2 -14 4 -62 -16 -62 -25 0 -4 -11
-8 -23 -9 -22 -1 -26 7 -55 126 -38 152 -163 543 -172 537 -3 -2 -7 8 -8 21
-1 14 -10 46 -21 72 -11 26 -32 79 -46 119 l-28 72 37 98 c102 268 243 711
251 785 0 10 4 21 8 24 4 4 7 16 7 26 0 24 11 23 71 -8z m-4247 -1549 c-7 -17
14 -47 27 -39 5 3 6 -2 3 -10 -7 -18 56 -137 68 -130 5 3 8 2 7 -3 -4 -21 2
-41 19 -59 9 -11 18 -25 19 -32 4 -17 184 -314 201 -331 11 -11 11 -15 1 -22
-7 -4 -17 -5 -21 -3 -4 3 -18 7 -30 10 -24 4 -48 9 -83 18 -11 2 -74 19 -140
36 -66 18 -133 34 -148 35 -15 1 -33 7 -39 13 -7 7 -18 12 -26 12 -21 0 -13
46 36 228 11 40 20 73 20 75 1 1 3 9 6 17 12 36 43 144 45 159 1 10 29 41 36
41 3 0 2 -7 -1 -15z m3655 -200 c43 -153 48 -172 64 -240 l14 -60 -131 -37
c-72 -21 -140 -40 -151 -43 -43 -10 -161 -37 -185 -41 -14 -3 -31 -7 -39 -9
-8 -3 -5 9 10 32 12 21 27 48 33 60 6 13 14 23 19 23 4 0 7 7 7 15 0 8 5 15
10 15 6 0 10 4 10 8 0 4 29 57 65 118 36 60 63 115 60 121 -2 7 0 12 6 10 5
-1 35 47 67 107 31 61 62 115 67 122 11 13 23 -19 74 -201z m-3816 -794 c31
-11 69 -22 84 -25 15 -2 73 -16 127 -30 55 -15 101 -24 104 -21 3 3 10 1 16
-4 6 -5 49 -16 96 -25 47 -9 96 -19 110 -22 49 -10 136 -25 175 -30 22 -3 51
-7 65 -10 14 -2 45 -7 70 -10 52 -7 64 -18 181 -164 42 -52 91 -111 109 -130
17 -19 57 -64 88 -99 90 -102 104 -116 113 -114 5 2 9 -3 9 -10 0 -6 52 -63
115 -126 l116 -114 -53 -35 c-29 -20 -57 -40 -63 -44 -28 -24 -210 -129 -285
-165 -133 -64 -170 -79 -250 -104 -41 -13 -77 -27 -78 -32 -2 -4 -8 -5 -12 -2
-5 3 -29 1 -55 -5 -132 -29 -273 -30 -372 -1 -17 5 -34 7 -37 3 -3 -3 -6 0 -6
6 0 7 -7 12 -15 12 -32 0 -127 63 -188 124 -22 22 -45 40 -50 38 -4 -1 -6 1
-3 6 3 5 -9 28 -25 53 -16 24 -41 69 -55 99 -14 30 -29 63 -35 72 -5 10 -9 26
-9 36 0 10 -3 22 -7 26 -4 3 -8 12 -10 19 -1 7 -10 44 -19 82 -9 39 -17 79
-18 90 -2 11 -6 47 -11 80 -10 73 -13 113 -14 188 -1 44 -4 56 -13 51 -10 -6
-10 -5 -2 7 7 8 12 46 13 84 1 92 12 248 18 258 6 10 14 9 76 -12z m3972 10
c8 -14 14 -138 14 -301 0 -154 -2 -203 -15 -290 -3 -25 -7 -58 -9 -75 -3 -16
-13 -66 -25 -110 -11 -44 -22 -87 -24 -96 -9 -36 -52 -128 -90 -191 -36 -62
-135 -178 -151 -178 -15 0 -54 -38 -47 -45 4 -5 2 -5 -5 -1 -7 4 -30 -2 -52
-14 -74 -37 -166 -52 -291 -47 -113 5 -136 8 -215 29 -22 5 -47 11 -55 13 -8
2 -28 9 -45 15 -16 6 -37 13 -46 15 -38 8 -202 86 -317 152 -51 30 -98 51
-104 47 -6 -4 -8 -3 -5 3 3 5 -34 36 -83 69 l-89 59 123 125 c154 156 197 202
250 264 22 27 46 54 53 61 7 7 49 57 93 111 144 174 159 191 172 191 7 0 31 4
53 8 40 7 59 10 125 20 19 2 44 7 55 9 11 3 30 5 43 5 16 1 21 5 16 14 -5 9
-4 9 5 1 9 -8 31 -7 84 6 40 9 75 17 80 17 4 1 20 4 35 7 15 3 38 8 52 10 14
2 52 12 85 21 33 9 67 18 75 20 108 25 196 48 202 54 11 10 47 11 53 2z
m-2152 -265 c82 -1 151 2 154 7 2 4 10 4 16 -1 14 -10 149 -8 166 2 6 4 11 3
11 -3 0 -6 6 -8 13 -6 23 9 137 11 137 4 0 -14 -355 -369 -368 -369 -6 0 -33
20 -58 45 -26 24 -52 42 -58 38 -6 -3 -8 -3 -4 2 4 4 -25 42 -65 83 -39 41
-99 104 -133 138 -63 67 -63 73 6 66 19 -2 102 -4 183 -6z m-873 -1352 c0 -8
-19 -13 -24 -6 -3 5 1 9 9 9 8 0 15 -2 15 -3z"/>
<path d="M3315 4896 c-142 -45 -247 -186 -248 -336 0 -86 15 -136 63 -207 102
-152 307 -200 470 -110 216 119 241 432 47 588 -90 72 -225 99 -332 65z"/>
<path d="M4105 4901 c-94 -25 -190 -106 -233 -199 -23 -49 -27 -70 -27 -147 0
-77 4 -98 27 -147 83 -177 280 -257 458 -185 73 30 117 66 164 136 44 66 59
117 59 201 -1 89 -32 166 -94 235 -70 75 -140 108 -244 111 -44 2 -93 0 -110
-5z"/>
<path d="M2935 4184 c-103 -33 -190 -113 -231 -212 -33 -80 -30 -203 7 -282
41 -89 147 -178 230 -196 116 -23 201 -10 287 46 257 166 200 559 -93 642 -68
20 -140 20 -200 2z"/>
<path d="M3724 4186 c-106 -26 -194 -101 -242 -205 -21 -46 -26 -71 -26 -142
-1 -77 3 -92 32 -152 40 -80 118 -154 194 -182 80 -30 196 -27 270 7 79 37
142 98 181 177 29 59 32 74 31 151 0 69 -5 95 -26 141 -75 163 -245 247 -414
205z"/>
<path d="M4495 4186 c-135 -33 -242 -150 -262 -286 -26 -173 64 -331 225 -393
171 -67 366 12 449 182 25 49 28 67 28 151 0 83 -3 102 -27 150 -50 101 -130
168 -235 195 -67 18 -109 18 -178 1z"/>
<path d="M4081 3479 c-302 -106 -324 -518 -36 -660 177 -87 389 -9 476 176 82
174 8 380 -167 466 -83 41 -189 48 -273 18z"/>
<path d="M3370 3478 c-183 -27 -316 -193 -304 -380 8 -117 91 -238 201 -293
53 -27 67 -30 158 -30 95 0 103 2 163 34 74 40 124 93 161 171 22 47 26 68 26
145 0 77 -4 98 -27 147 -69 148 -219 229 -378 206z"/>
</g>
</svg>
